<?xml version="1.0" encoding="utf-8"?>
<!-- Generator: Adobe Illustrator 19.0.0, SVG Export Plug-In . SVG Version: 6.00 Build 0)  -->
<svg version="1.1" id="Layer_1" xmlns="http://www.w3.org/2000/svg" xmlns:xlink="http://www.w3.org/1999/xlink" x="0px" y="0px"
	 viewBox="0 0 612 792" style="enable-background:new 0 0 612 792;" xml:space="preserve">
<style type="text/css">
	.st0{fill:#E5AD57;stroke:#000000;stroke-width:0.25;stroke-miterlimit:10;}
	.st1{fill:#FFFFFF;stroke:#000000;stroke-width:0.5;stroke-miterlimit:10;}
	.st2{fill:#E5AD57;stroke:#000000;stroke-width:0.5;stroke-miterlimit:10;}
	.st3{fill:#FFFFFF;}
	.st4{fill:#FFFFFF;stroke:#000000;stroke-width:0.25;stroke-miterlimit:10;}
	.st5{fill:none;stroke:#262262;stroke-width:3;stroke-miterlimit:10;}
	.st6{fill:none;stroke:#262262;stroke-width:2;stroke-miterlimit:10;}
	.st7{stroke:#000000;stroke-miterlimit:10;}
	.st8{fill:#FFFFFF;stroke:#000000;stroke-miterlimit:10;}
	.st9{fill:#FFFFFF;stroke:#000000;stroke-width:3;stroke-miterlimit:10;}
	.st10{opacity:0.51;fill:#E6E0E4;}
	.st11{fill:url(#XMLID_2_);stroke:#000000;stroke-miterlimit:10;}
	.st12{fill:url(#XMLID_13_);stroke:#000000;stroke-miterlimit:10;}
</style>
<path id="XMLID_110_" class="st0" d="M254.4,505.2c0,8.1,18.1,14.7,33.8,14.7s28.5-6.6,28.5-14.7s22-14.7-28.5-14.7
	C249.9,490.5,254.4,497.1,254.4,505.2z"/>
<path id="XMLID_113_" class="st0" d="M348.1,553.3c11.2,35.5,13.1,67.9-11,66.5c-65.9-4-7.8-10.5-32.8-61.6"/>
<path id="XMLID_109_" class="st0" d="M395.3,519.6c3.2,19.5,37.6,73.1-51.4,68.3c-25.9-1.4-48.7-33.4-48.7-63.5
	c0-30.1,21-55.7,46.9-54.5C376.7,471.5,390.4,489.8,395.3,519.6z"/>
<path id="XMLID_118_" class="st0" d="M394.5,489.7c16.3,10.8,28.1,22.9,18.6,33c-11.1,11.8-24.1,4.8-40.4-5.9
	c-16.3-10.8-28.9-20.5-18.6-33C365.2,470.2,378.2,478.9,394.5,489.7z"/>
<path id="XMLID_111_" class="st0" d="M397.2,551.7c11.2,35.5,9.4,73.4-10.3,72.8c-52.1-1.7-19.2-26.8-30.3-62.3"/>
<g id="XMLID_120_">
	<path id="XMLID_124_" class="st1" d="M400.6,512.5c-6.1,5.7-7.4,13.5-3,17.4c4.4,3.9,12.9,2.5,19-3.2c6.1-5.7,7.4-13.5,3-17.4
		C415.2,505.3,406.7,506.8,400.6,512.5z"/>
	<path id="XMLID_123_" class="st1" d="M397.8,529.9c2.9,4.3,8.5,6.2,12.4,4.4c3.9-1.8,4.8-6.8,1.9-11"/>
	<path id="XMLID_122_" class="st1" d="M406.2,524.7c5.9,5.2,12.9,7.2,15.7,4.6c2.8-2.6,0.4-9-5.5-14.2"/>
	<path id="XMLID_121_" class="st1" d="M413.6,518.3c4.2,3.4,9.2,4.3,11.3,2.1s0.3-6.7-3.9-10"/>
</g>
<g id="XMLID_114_">
	<path id="XMLID_119_" class="st1" d="M249,498c-4.8,6.6-4.6,14.5,0.5,17.6c5.1,3.1,13.2,0.3,18.1-6.3c4.8-6.6,4.6-14.5-0.5-17.6
		C262,488.6,253.9,491.4,249,498z"/>
	<path id="XMLID_117_" class="st1" d="M249.8,515.7c3.7,3.7,9.6,4.8,13.1,2.3c3.5-2.4,3.3-7.4-0.4-11.2"/>
	<path id="XMLID_116_" class="st1" d="M257,509.2c6.8,4.1,14.1,5,16.4,1.9c2.2-3.1-1.4-8.9-8.2-13"/>
	<path id="XMLID_115_" class="st1" d="M262.9,501.6c4.8,2.6,9.9,2.7,11.5,0.3c1.6-2.5-1-6.6-5.8-9.2"/>
</g>
<g id="XMLID_63_">
	<path id="XMLID_69_" class="st2" d="M390.1,188.9c14.1-11.9,84.9-36.7,100-21.5c15.1,15.3-22,80.2-32.2,87.9"/>
	<path id="XMLID_78_" class="st0" d="M484.9,175.7c5.2-2.9,10.8-11.4,11.9-9.6c1.1,1.7-2.6,13.1-7.8,16"/>
	<path id="XMLID_81_" class="st0" d="M480.8,169.3c5.2-2.9,10.8-11.4,11.9-9.6s-2.6,13.1-7.8,16"/>
	<path id="XMLID_82_" class="st0" d="M475.9,167.8c2.8-4.9,2.7-14.9,4.7-14c2,0.9,5.2,12.4,2.5,17.4"/>
	<path id="XMLID_83_" class="st0" d="M471.6,170.2c0.2-5.5-4.5-14.5-2.3-14.5s10.5,9.1,10.3,14.7"/>
	<path id="XMLID_79_" class="st0" d="M484.6,187.3c5.2-2.9,10.8-11.4,11.9-9.6c1.1,1.7-2.6,13.1-7.8,16"/>
	<path id="XMLID_80_" class="st0" d="M483.6,194.1c6,0,15.6-4.7,15.6-2.7c0,2-9.5,10-15.6,10.1"/>
	<path id="XMLID_87_" class="st3" d="M445.5,207.9c7.1,2,20.8-1.4,19.8,1.6s-16.2,11.2-23.4,9.2"/>
	<path id="XMLID_88_" class="st3" d="M442.7,217.1c9.4,2.7,27.4-1.9,26,2.1c-1.3,3.9-21.4,14.8-30.8,12.1"/>
	<path id="XMLID_90_" class="st3" d="M439.8,210.7c5.3,12.6,23.2,29.3,19,30.8s-28.7-12.8-34-25.4"/>
	<path id="XMLID_84_" class="st3" d="M443,200.8c9.6-5.3,20-21.2,22.2-17.9c2.1,3.3-4.9,24.4-14.4,29.7"/>
	<path id="XMLID_85_" class="st3" d="M425.6,215c2.3-6.6,0-19,2.6-18.2s9.3,14.4,7,21"/>
	<path id="XMLID_89_" class="st3" d="M431.5,226.3c-7.7-10.9-25.3-25-23-26.4c2.3-1.4,23.7,10.5,31.4,21.3"/>
	<path id="XMLID_86_" class="st3" d="M429.9,208.6c6.7-8.3,9.8-26.6,13.1-24.3s5.5,24.2-1.1,32.5"/>
</g>
<g id="XMLID_92_">
	<path id="XMLID_106_" class="st2" d="M187.8,261.4c-14.5-11.5-49.7-73.3-35-88.9s89.1,10.6,98.6,19.1"/>
	<path id="XMLID_105_" class="st0" d="M162.3,176.3c-3.7-4.4-13.6-8.5-11.8-9.8c1.7-1.3,14.4,0.8,18.1,5.2"/>
	<path id="XMLID_104_" class="st0" d="M155.9,180.9c-3.7-4.4-13.6-8.5-11.8-9.8c1.7-1.3,14.4,0.8,18.1,5.2"/>
	<path id="XMLID_103_" class="st0" d="M154.9,185.5c-5.6-1.9-16.4-0.7-15.6-2.6c0.8-1.9,12.8-6.3,18.4-4.3"/>
	<path id="XMLID_102_" class="st0" d="M157.9,189.2c-6,0.5-15.1,5.9-15.3,3.8c-0.2-2,8.6-10.7,14.6-11.2"/>
	<path id="XMLID_101_" class="st0" d="M174.8,175.2c-3.7-4.4-13.6-8.5-11.8-9.8c1.7-1.3,14.4,0.8,18.1,5.2"/>
	<path id="XMLID_100_" class="st0" d="M182.3,175.3c-0.7-5.5-6.9-13.7-4.7-14c2.2-0.3,11.9,7.5,12.7,13"/>
	<path id="XMLID_99_" class="st3" d="M201.7,208.5c1.4-6.8-4-18.8-0.7-18.2s14,13.5,12.7,20.3"/>
	<path id="XMLID_98_" class="st3" d="M212,210c1.8-8.9-5.2-24.8-0.9-24.1s18.5,17.8,16.7,26.7"/>
	<path id="XMLID_97_" class="st3" d="M205.4,213.4c12.9-6.4,28.8-24.7,30.9-21c2.1,3.6-10.4,27.7-23.3,34.1"/>
	<path id="XMLID_96_" class="st3" d="M194.3,211.7c-6.9-8.1-25.2-15.8-22-18.1c3.3-2.3,26.9,1.5,33.7,9.7"/>
	<path id="XMLID_95_" class="st3" d="M211.8,225.9c-7.4-1.3-20.5,2.3-20-0.2s14.4-10.2,21.9-8.9"/>
	<path id="XMLID_94_" class="st3" d="M223.2,219.2c-10.8,8.4-24,26.1-25.8,24.1c-1.8-2,8.5-22.9,19.3-31.3"/>
	<path id="XMLID_93_" class="st3" d="M204.3,222.7c-9.7-5.1-29.8-5.8-27.8-9.1c2-3.3,25.5-7.9,35.2-2.8"/>
</g>
<path id="XMLID_53_" class="st2" d="M496.2,333.4c19.9-1.2-29.3,79.9-154.1,83.6c-115.5,3.4-209.1-89.1-165.9-82.2
	c16.2,2.6-35.2-166.7,165.9-160.9C509.1,178.7,459.3,335.7,496.2,333.4z"/>
<g id="XMLID_34_">
	<path id="XMLID_30_" class="st4" d="M506.7,384.4c-28.6,13.8-77.4,77.7-169.6,77.7S201.1,399,172.9,384.4
		c-66.8-34.5,74.7,0,166.9,0S565,356.3,506.7,384.4z"/>
	<path id="XMLID_33_" class="st4" d="M495,400.6c-26.6,13.8-72,77.7-157.8,77.7s-126.6-63.2-152.8-77.7"/>
	<path id="XMLID_35_" class="st4" d="M189.8,404.5c-4.3-4.6-26.2-8.6-22.8-12c3.5-3.4,31-4.9,35.3-0.3"/>
	<path id="XMLID_36_" class="st4" d="M179.3,377.9c-2.1-6-20.4-18.9-15.8-20.5c4.5-1.6,30.2,8.7,32.3,14.7"/>
	<path id="XMLID_43_" class="st4" d="M244.1,390.5c-1.1-6-17.2-22.5-12.4-22.9s28.6,15.5,29.7,21.6"/>
	<path id="XMLID_50_" class="st4" d="M290.5,393.1c0-5.6-13.4-23.4-8.5-22.8c5,0.6,26.5,19.3,26.4,24.9"/>
	<path id="XMLID_52_" class="st4" d="M299.9,393.9c0.2-5.8-15.5-25-9.6-24.1c5.9,0.9,31.3,21.5,31.1,27.3"/>
	<path id="XMLID_44_" class="st4" d="M256.3,387.2c-0.3-5.1-14.3-19.4-9.5-19.5c4.8-0.1,26.6,14,26.9,19.1"/>
	<path id="XMLID_45_" class="st4" d="M270.8,386.6c0.9-4.1-9.4-17.1-4.6-16.6s22.8,14.2,21.9,18.3"/>
	<path id="XMLID_39_" class="st4" d="M200.3,377.7c-1-3.2-17-11.3-12.2-11.7c4.7-0.4,28.3,7,29.4,10.2"/>
	<path id="XMLID_40_" class="st4" d="M221.2,377.5c0-3.2-13.1-12.6-8.3-12.6c4.8,0,25.7,9.4,25.7,12.6"/>
	<path id="XMLID_37_" class="st4" d="M484.2,406c7.4-4.6,27.3-5.3,25.2-8.7c-2.1-3.4-25.4-8.4-32.8-3.8"/>
	<path id="XMLID_38_" class="st4" d="M488.1,382.8c5.2-9.2,25.9-21.4,21.7-23.8c-4.1-2.4-31.5,5.9-36.7,15.1"/>
	<path id="XMLID_41_" class="st4" d="M471.4,386.8c1.3-5.7,15.4-14.5,10.8-15.5c-4.7-1.1-26.4,6-27.6,11.7"/>
	<path id="XMLID_42_" class="st4" d="M452.1,385.4c1.3-5.7,15.4-14.5,10.8-15.5c-4.7-1.1-26.4,6-27.6,11.7"/>
	<path id="XMLID_46_" class="st4" d="M433,385.3c1.3-5.7,15.4-14.5,10.8-15.5s-26.4,6-27.6,11.7"/>
	<path id="XMLID_49_" class="st4" d="M418.5,382.9c0-4.1,11.8-12.3,7.1-12.3s-24.4,8.4-24.3,12.5"/>
	<path id="XMLID_48_" class="st4" d="M399.4,385.1c0-4.1,11.8-12.3,7.1-12.3c-4.8,0.1-24.4,8.4-24.3,12.5"/>
	<path id="XMLID_47_" class="st4" d="M380.8,388.2c0-4.1,11.8-12.3,7.1-12.3s-24.4,8.4-24.3,12.5"/>
	<path id="XMLID_51_" class="st4" d="M366.7,387.5c-1.1-3.9,8.2-15.1,3.6-13.7c-4.6,1.3-21.3,14.6-20.2,18.5"/>
</g>
<ellipse id="XMLID_17_" class="st5" cx="392.1" cy="335.3" rx="34.7" ry="30.9"/>
<ellipse id="XMLID_18_" class="st5" cx="267.1" cy="335.3" rx="34.7" ry="30.9"/>
<path id="XMLID_22_" class="st6" d="M230.2,367.8c0-1.1,7.6-6.3,17-6.3c9.4,0,17,5.2,17,6.3"/>
<path id="XMLID_23_" class="st6" d="M400.1,365.1c0.9,3,0,0,9.4-2.5s17.7-2.1,18.7,0.9"/>
<path id="XMLID_21_" class="st7" d="M415.2,279.2c0,5-19.6-5.4-28.1-5.4s-15.4-4.1-15.4-9.1c0-5,6.9-9.1,15.4-9.1
	S415.2,274.1,415.2,279.2z"/>
<path id="XMLID_24_" class="st7" d="M234,280.7c0,5.1,21.7-8.2,29.6-8.2c7.9,0,14.3-4.1,14.3-9.2c0-5.1-6.4-9.2-14.3-9.2
	C255.7,254.2,234,275.7,234,280.7z"/>
<path id="XMLID_25_" class="st7" d="M352.6,387.7c-19.5,12.7-2.6,12.7-19.5,12.7c-11,0-15.9-1.8-20.2-12.7
	c-2.2-5.6,8.9-10.9,19.8-10.9S357.9,384.2,352.6,387.7z"/>
<g id="XMLID_27_">
	<ellipse id="XMLID_26_" class="st8" cx="326.5" cy="383.3" rx="7.2" ry="3.2"/>
	<ellipse id="XMLID_28_" class="st8" cx="343.7" cy="383.3" rx="3.9" ry="1.7"/>
</g>
<path id="XMLID_29_" class="st9" d="M370,419.4c-8.7,19.7-33.2,29.2-54.6,21.2"/>
<path id="XMLID_31_" class="st9" d="M379.4,418.4c-6.8,2.6-14.7-0.3-17.6-6.6"/>
<path id="XMLID_32_" class="st9" d="M316.7,436c1.2,2.7-0.1,5.8-3.1,6.9"/>
<path id="XMLID_54_" class="st10" d="M225.7,215.2c-9.3,8.8-26.6,43.7-23.7,46.3c2.9,2.6,2.9-11.6,34.3-36.8c10-8,14.4-18,11.5-20.6
	C244.9,201.5,235,206.5,225.7,215.2z"/>
<path id="XMLID_107_" class="st10" d="M480.5,200c1.3-4.9-0.5-20.7-2.1-21.1s1.6,4.7-3.8,19.7c-1.7,4.8-1,9.2,0.6,9.6
	S479.2,204.9,480.5,200z"/>
<path id="XMLID_108_" class="st10" d="M185.3,186.2c5.5,0.3,22-4.2,22.1-5.8c0.1-1.6-4.7,2.3-21.8,0.2c-5.4-0.7-10,0.8-10.1,2.3
	C175.4,184.4,179.8,185.9,185.3,186.2z"/>
<g id="XMLID_91_">
	<g id="XMLID_55_">
		<path id="XMLID_56_" class="st0" d="M318.9,176.4c0-11.7-12.9-30.3-7.2-30.3s27.9,18.6,27.9,30.3"/>
		<path id="XMLID_57_" class="st0" d="M309.7,178.9c0-8.6-9.5-22.2-5.3-22.2s20.5,13.7,20.5,22.2"/>
		<path id="XMLID_58_" class="st0" d="M315,180.7c-6.4-5.2-21.2-8.6-19.1-10.7c2.1-2.2,20.3-2.2,26.6,2.9"/>
		<path id="XMLID_61_" class="st0" d="M340.6,173.3c7.2-3.9,14.3-16.7,16.2-13.8c1.9,3-2.2,20.7-9.3,24.5"/>
	</g>
	<path id="XMLID_60_" class="st0" d="M336,169.3c5.3-2.8,10.5-12.3,11.9-10.1s-1.6,15.2-6.8,18"/>
	<path id="XMLID_59_" class="st0" d="M336.7,172.6c1.1-5-1.7-13.8,0.3-13.5c2,0.4,8.1,9.8,7,14.8"/>
</g>
<ellipse id="XMLID_62_" class="st3" cx="327" cy="369.4" rx="2.7" ry="2.5"/>
<ellipse id="XMLID_70_" class="st3" cx="314.8" cy="374.8" rx="2.3" ry="2.1"/>
<ellipse id="XMLID_73_" class="st3" cx="319.2" cy="371.1" rx="2.3" ry="2.1"/>
<ellipse id="XMLID_72_" class="st3" cx="317.7" cy="366" rx="2.3" ry="2.1"/>
<ellipse id="XMLID_75_" class="st3" cx="312.6" cy="362.8" rx="2.3" ry="2.1"/>
<ellipse id="XMLID_74_" class="st3" cx="317.7" cy="356.3" rx="2.3" ry="2.1"/>
<ellipse id="XMLID_64_" class="st3" cx="334.2" cy="371.9" rx="2.7" ry="2.5"/>
<ellipse id="XMLID_65_" class="st3" cx="334.8" cy="363.8" rx="2.7" ry="2.5"/>
<ellipse id="XMLID_67_" class="st3" cx="341.7" cy="365.3" rx="2.7" ry="2.5"/>
<ellipse id="XMLID_77_" class="st3" cx="347.8" cy="365.1" rx="2.7" ry="2.5"/>
<ellipse id="XMLID_71_" class="st3" cx="347.8" cy="372.3" rx="2.7" ry="2.5"/>
<ellipse id="XMLID_68_" class="st3" cx="341" cy="371.3" rx="2.7" ry="2.5"/>
<ellipse id="XMLID_66_" class="st3" cx="326.3" cy="361.3" rx="2.7" ry="2.5"/>
<ellipse id="XMLID_76_" class="st3" cx="332.9" cy="355.5" rx="2.7" ry="2.5"/>
<g id="XMLID_174_">
	<g id="XMLID_20_">
		<path id="XMLID_15_" class="st7" d="M299.6,347c-6.3,15.9-25.8,23.9-43.6,17.9c-17.8-6-27.1-23.7-20.8-39.6
			c6.3-15.9,25.8-23.9,43.6-17.9C296.6,313.5,305.9,331.2,299.6,347z"/>
		<path id="XMLID_3_" class="st8" d="M297.1,347.3c-5.6,14.2-22.7,21.5-38.2,16.3s-23.4-20.9-17.7-35.1
			c5.6-14.2,22.7-21.5,38.2-16.3S302.7,333.1,297.1,347.3z"/>
		
			<linearGradient id="XMLID_2_" gradientUnits="userSpaceOnUse" x1="258.8393" y1="316.3955" x2="306.0627" y2="316.3955" gradientTransform="matrix(0.9393 0.3432 -0.3432 0.9393 117.9898 -54.3403)">
			<stop  offset="0" style="stop-color:#2484C6"/>
			<stop  offset="1" style="stop-color:#2484C6;stop-opacity:0"/>
		</linearGradient>
		<path id="XMLID_4_" class="st11" d="M297.1,347.3c-4.5,11.4-18.2,17.2-30.6,13.1c-12.4-4.2-18.7-16.8-14.2-28.1
			c4.5-11.4,18.2-17.2,30.6-13.1C295.2,323.3,301.6,335.9,297.1,347.3z"/>
		<path id="XMLID_5_" class="st7" d="M297.1,347.3c-3.5,8.8-14.1,13.4-23.7,10.2s-14.5-13-11-21.8c3.5-8.8,14.1-13.4,23.7-10.2
			C295.6,328.7,300.6,338.5,297.1,347.3z"/>
		<path id="XMLID_6_" class="st8" d="M283.7,329.9c-1,2.6-4.1,3.9-6.9,2.9s-4.2-3.8-3.2-6.3c1-2.6,4.1-3.9,6.9-2.9
			S284.7,327.4,283.7,329.9z"/>
		<path id="XMLID_7_" class="st8" d="M281.2,356.6c-0.7,1.7-2.7,2.5-4.5,1.9c-1.8-0.6-2.8-2.5-2.1-4.2s2.7-2.5,4.5-1.9
			C280.9,353.1,281.8,355,281.2,356.6z"/>
	</g>
	<g id="XMLID_19_">
		<path id="XMLID_16_" class="st7" d="M425.7,328.3c4.3,16.3-7.1,32.7-25.3,36.8c-18.3,4.1-36.5-5.8-40.8-22.1s7.1-32.7,25.3-36.8
			C403.2,302.1,421.4,312,425.7,328.3z"/>
		<path id="XMLID_11_" class="st8" d="M415.9,331.5c3.8,14.6-5.9,29.2-21.7,32.8c-15.8,3.5-31.8-5.4-35.6-20
			c-3.8-14.6,5.9-29.2,21.7-32.8C396.1,308,412,317,415.9,331.5z"/>
		
			<linearGradient id="XMLID_13_" gradientUnits="userSpaceOnUse" x1="347.6645" y1="348.3697" x2="394.6676" y2="348.3697" gradientTransform="matrix(0.9719 -0.2353 0.2353 0.9719 -62.4513 88.1947)">
			<stop  offset="0" style="stop-color:#2484C6"/>
			<stop  offset="1" style="stop-color:#2484C6;stop-opacity:0"/>
		</linearGradient>
		<path id="XMLID_10_" class="st12" d="M403.2,334.4c3.1,11.7-4.7,23.4-17.4,26.2c-12.7,2.8-25.4-4.3-28.5-16
			c-3.1-11.7,4.7-23.4,17.4-26.2C387.4,315.5,400.1,322.7,403.2,334.4z"/>
		<path id="XMLID_9_" class="st7" d="M392.9,336.6c2.4,9.1-3.7,18.2-13.5,20.4c-9.8,2.2-19.7-3.4-22.1-12.4s3.7-18.2,13.5-20.4
			C380.6,322,390.6,327.6,392.9,336.6z"/>
		<path id="XMLID_8_" class="st8" d="M371.6,329.1c0.7,2.6-1.1,5.3-3.9,5.9c-2.9,0.6-5.7-1-6.4-3.6c-0.7-2.6,1.1-5.3,3.9-5.9
			S370.9,326.5,371.6,329.1z"/>
		<path id="XMLID_12_" class="st8" d="M385.4,352.4c0.5,1.7-0.7,3.5-2.6,3.9c-1.9,0.4-3.8-0.6-4.2-2.4c-0.5-1.7,0.7-3.5,2.6-3.9
			C383.1,349.6,384.9,350.7,385.4,352.4z"/>
	</g>
</g>
</svg>
